<?xml version="1.0"?>
<svg version="1.1" xmlns="http://www.w3.org/2000/svg" width="400px" height="217px" style=""><path fill="#" d="M67.928,124.754l0.756-0.162q0.594,0,1.134,0.486t0.54,0.756t-3.348,5.211t-3.348,6.885q0,0.162,0.054,0.324q0.27,1.242,1.188,1.242q2.808,0,10.26-9.288q0.162-0.216,0.378-0.216t0.216,0.405t-0.486,1.053q-6.912,9.234-10.53,9.234q-0.486,0-0.918-0.162q-2.376-0.918-2.376-3.564q0-0.918,0.216-1.836l-3.348,3.24q-3.186,2.808-4.617,2.808t-2.727-0.918q-1.458-1.08-1.458-2.862q0-3.942,5.508-9.423t10.098-5.481q1.782,0,2.376,1.242q0.162,0.432,0.27,0.729t0.162,0.297z M51.782,138.038q0,1.944,1.35,1.944q3.132,0,8.532-6.858l5.724-7.884q-0.432-0.756-1.404-0.756q-3.294,0-8.748,5.103t-5.454,8.451z M78.52118,139.82q1.782,0,4.59-1.89t5.454-5.13q0.648-0.864,1.026-0.864t0.378,0.324t-2.214,2.808q-5.4,5.94-9.018,5.94q-1.782,0-3.024-0.837t-1.242-2.592t0.918-4.077q1.566-3.672,5.022-9.234q6.318-10.26,8.964-10.26q0.54,0,1.107,0.405t0.621,0.891q-1.242,1.674-4.779,6.426t-4.887,6.831t-2.025,3.105t-0.999,1.593t-0.756,1.485q-0.918,1.836-0.918,3.456t1.782,1.62z M92.89436,141.602q-0.594,0-1.08-0.162q-3.456-0.972-3.456-3.888q0-3.78,4.752-8.748t8.532-4.968q1.242,0,2.025,0.675t0.783,1.647q0,3.024-4.563,5.778t-7.425,2.754q-0.432,0-0.756-0.108q-0.81,1.458-0.81,3.078q0,2.808,2.673,2.808t6.939-3.618q3.294-2.646,5.616-5.616q0.486-0.648,0.837-0.648t0.351,0.324t-0.432,0.918q-2.916,3.834-7.02,6.804t-6.966,2.97z M103.10036,126.05q0-0.648-1.377-0.648t-3.915,2.106q-3.402,2.808-5.292,5.886q0.324,0.108,0.702,0.108q2.052,0,5.481-2.187t4.293-4.779q0.108-0.27,0.108-0.486z M132.21554,140.252q-3.672,0-3.672-3.402q0-1.944,1.728-5.319t3.618-5.697q-3.348,1.62-7.722,5.859t-6.102,8.883q-0.27,0.432-0.918,0.432q-1.296,0-1.296-1.458q0.54-2.97,2.43-6.804q0.594-1.242,3.51-7.236q-4.212,2.754-7.155,5.913t-5.454,6.345t-2.835,3.186q-0.702,0-1.215-0.648t-0.513-1.296q0-0.972,2.808-7.128l-3.24,3.402q-1.188,1.188-1.485,1.188t-0.297-0.351t0.432-0.783q1.998-1.998,3.564-3.996t5.184-7.128q0.594-0.81,1.674-0.81t1.08,1.026q0,0.378-2.862,5.265t-3.186,6.129q2.214-2.43,6.642-6.534q6.642-6.156,8.748-6.156q0.648,0,1.188,0.378t0.54,0.837t-2.106,4.077q-2.052,3.726-2.268,4.428q5.994-5.022,5.994-5.076q5.076-3.942,7.29-3.942q0.648,0,1.215,0.405t0.567,0.945q0,0.108-3.51,4.563t-3.942,7.317q-0.108,0.972,0.378,1.458t1.755,0.486t3.726-1.755t4.995-4.725q0.972-1.08,1.323-1.08t0.351,0.27q0,0.378-0.486,0.864q-2.646,3.186-5.697,5.427t-4.779,2.241z M145.61672,141.602q-0.594,0-1.08-0.162q-3.456-0.972-3.456-3.888q0-3.78,4.752-8.748t8.532-4.968q1.242,0,2.025,0.675t0.783,1.647q0,3.024-4.563,5.778t-7.425,2.754q-0.432,0-0.756-0.108q-0.81,1.458-0.81,3.078q0,2.808,2.673,2.808t6.939-3.618q3.294-2.646,5.616-5.616q0.486-0.648,0.837-0.648t0.351,0.324t-0.432,0.918q-2.916,3.834-7.02,6.804t-6.966,2.97z M155.82272,126.05q0-0.648-1.377-0.648t-3.915,2.106q-3.402,2.808-5.292,5.886q0.324,0.108,0.702,0.108q2.052,0,5.481-2.187t4.293-4.779q0.108-0.27,0.108-0.486z M169.0619,140.09q-1.566,0.918-3.861,0.918t-3.51-1.512t-2.079-4.806q-0.972,0.972-1.35,0.972q-0.27,0-0.27-0.378t0.27-0.648q1.782-2.214,6.048-6.372l6.804-6.372q2.916-2.754,3.456-2.754q1.728,0,1.728,1.296q0,0.648-0.513,1.269t-0.756,0.972t-0.513,0.675q-0.972,1.674-1.971,6.912t-1.539,7.29q4.482-0.054,9.234-5.832q0.54-0.54,0.81-0.54t0.27,0.351t-0.486,0.945q-3.132,3.672-5.832,5.13q-1.62,0.81-4.212,1.35z M161.7719,134.096q0,1.836,1.215,2.997t2.727,1.161t2.322-0.594q1.08-0.594,2.133-4.968t1.269-7.722l0.216-1.836q-2.97,2.214-6.345,5.724t-3.483,4.644q-0.054,0.324-0.054,0.594z M193.69508,140.684q-3.186,0-3.186-3.726q0-2.106,1.485-4.671t3.645-6.021q-6.912,3.456-12.528,10.206q-3.132,4.698-3.672,4.698q-1.566,0-1.566-0.918q0-0.486,0.648-1.728q5.238-9.342,7.938-13.662q6.426-10.314,9.072-11.178q0.108-0.054,0.216-0.054q0.702,0,0.972,1.134q-0.162,1.134-5.616,8.208q-5.67,7.182-6.426,9.396q1.998-1.458,6.966-4.914q5.346-3.726,7.074-3.726t1.728,1.35q0,0.216-0.027,0.297t-3.753,5.103t-3.726,7.398q0,1.242,0.918,1.242q2.916-0.108,8.748-7.02q0.486-0.486,0.729-0.486t0.243,0.324q0,1.08-5.346,5.832q-3.348,2.916-4.536,2.916z"/><path fill="#ffffff" d=""/></svg>
